<?xml version="1.0" standalone="no"?>
<!DOCTYPE svg PUBLIC "-//W3C//DTD SVG 20010904//EN"
 "http://www.w3.org/TR/2001/REC-SVG-20010904/DTD/svg10.dtd">
<svg version="1.0" xmlns="http://www.w3.org/2000/svg"
 width="700.000000pt" height="700.000000pt" viewBox="0 0 700.000000 700.000000"
 preserveAspectRatio="xMidYMid meet">
<metadata>
Created by potrace 1.14, written by Peter Selinger 2001-2017
</metadata>
<g transform="translate(0.000000,700.000000) scale(0.100000,-0.100000)"
fill="#000000" stroke="none">
<path d="M2493 5611 c-52 -38 -160 -181 -250 -333 -125 -209 -342 -624 -432
-828 -18 -41 -42 -95 -53 -120 -80 -179 -196 -516 -227 -660 -41 -189 -55
-321 -55 -515 0 -172 3 -199 26 -285 47 -175 127 -309 268 -449 130 -130 254
-203 594 -349 116 -50 329 -161 386 -201 84 -59 248 -223 283 -282 28 -50 43
-116 30 -136 -23 -34 -114 -17 -338 63 -203 72 -358 124 -385 130 -14 3 -29 6
-35 8 -69 20 -165 26 -217 14 -57 -12 -93 -41 -116 -91 -27 -55 -31 -83 -38
-257 -8 -167 -3 -193 58 -285 108 -163 226 -226 640 -345 264 -76 262 -75 370
-190 78 -82 102 -97 173 -107 85 -12 392 -5 525 12 19 2 58 7 85 11 259 32
747 159 940 244 283 126 461 208 714 333 l143 70 -6 211 c-4 116 -9 234 -11
261 -1 28 -6 97 -9 155 -4 58 -9 125 -11 150 -2 25 -7 79 -11 120 -10 124 -12
143 -19 195 -3 28 -8 68 -11 90 -16 126 -53 320 -109 565 -2 12 -18 72 -40
150 -75 274 -169 534 -342 950 l-114 275 17 32 c17 33 209 224 494 493 182
172 409 397 465 461 85 97 95 110 125 163 41 72 38 105 -13 129 -60 30 -167
28 -337 -6 -134 -27 -295 -61 -340 -72 -30 -8 -66 -16 -80 -19 -14 -2 -88 -19
-165 -36 -77 -17 -151 -34 -165 -36 -14 -3 -83 -18 -155 -34 -71 -16 -141 -31
-155 -33 -14 -3 -36 -8 -50 -11 -31 -7 -37 -8 -295 -56 -115 -21 -235 -41
-266 -44 -31 -4 -65 -8 -75 -10 -20 -4 -137 -17 -189 -21 -16 -2 -59 -6 -95
-10 -36 -4 -83 -8 -105 -10 -22 -2 -74 -6 -115 -9 -246 -22 -400 -31 -540 -31
l-125 0 -27 125 c-15 69 -30 137 -33 153 -16 82 -62 232 -86 279 -29 57 -49
63 -96 29z m1711 -2293 c174 -39 287 -103 332 -190 34 -66 9 -184 -60 -285
-55 -80 -107 -94 -193 -54 -163 77 -366 309 -387 441 -6 44 14 76 57 89 40 12
195 11 251 -1z m-302 -424 c78 -13 216 -125 289 -235 54 -81 49 -137 -16 -208
-42 -45 -99 -72 -143 -66 -34 4 -116 45 -147 72 -83 74 -138 189 -139 292 0
101 10 136 48 151 19 8 35 7 108 -6z"/>
</g>
</svg>
