<?xml version="1.0" encoding="UTF-8" standalone="no"?>
<!-- Created with Inkscape (http://www.inkscape.org/) -->

<svg
   width="1024"
   height="1024"
   viewBox="0 0 270.93333 270.93333"
   version="1.1"
   id="svg914"
   inkscape:version="1.2 (dc2aedaf03, 2022-05-15)"
   sodipodi:docname="rayhanadev-logo-square.svg"
   inkscape:export-filename="rayhanadev-logo_color-circle.png"
   inkscape:export-xdpi="96"
   inkscape:export-ydpi="96"
   xmlns:inkscape="http://www.inkscape.org/namespaces/inkscape"
   xmlns:sodipodi="http://sodipodi.sourceforge.net/DTD/sodipodi-0.dtd"
   xmlns="http://www.w3.org/2000/svg"
   xmlns:svg="http://www.w3.org/2000/svg">
  <sodipodi:namedview
     id="namedview916"
     pagecolor="#505050"
     bordercolor="#eeeeee"
     borderopacity="1"
     inkscape:pageshadow="0"
     inkscape:pageopacity="0"
     inkscape:pagecheckerboard="0"
     inkscape:document-units="px"
     showgrid="false"
     inkscape:zoom="0.534809"
     inkscape:cx="-19.633177"
     inkscape:cy="712.40387"
     inkscape:window-width="1920"
     inkscape:window-height="1057"
     inkscape:window-x="-8"
     inkscape:window-y="-8"
     inkscape:window-maximized="1"
     inkscape:current-layer="layer4"
     inkscape:lockguides="false"
     units="px"
     inkscape:showpageshadow="0"
     inkscape:deskcolor="#505050"
     showguides="false" />
  <defs
     id="defs911" />
  <g
     inkscape:groupmode="layer"
     id="layer2"
     inkscape:label="Background">
    <rect
       style="fill:#7adfff;fill-opacity:1;stroke-width:0.264583"
       id="background"
       width="270.93332"
       height="270.93332"
       x="0"
       y="-0.4947249"
       inkscape:label="square"></rect>
  </g>
  <g
     inkscape:groupmode="layer"
     id="layer4"
     inkscape:label="Design">
    <path
       style="fill:#ffffff;fill-opacity:1;stroke-width:2.64433"
       d="m 464.42367,966.60428 c -11.45782,-1.54458 -14.37505,-3.41502 -26.44334,-16.9548 -13.46355,-15.10515 -13.80146,-15.28632 -45.29675,-24.28491 -57.18209,-16.33759 -72.35801,-22.51409 -86.45111,-35.185 -7.15217,-6.43041 -15.70753,-17.17447 -19.01191,-23.87569 -5.47589,-11.10501 -5.87275,-14.65458 -4.48131,-40.08104 1.12023,-20.4705 2.79538,-29.8293 6.29252,-35.15547 11.79356,-17.96158 35.18799,-16.49036 94.39664,5.93645 23.99733,9.08961 48.39131,16.73456 54.20885,16.98879 9.17024,0.40075 10.69138,-0.34175 11.43464,-5.58145 1.96799,-13.87355 -23.37364,-43.39429 -54.15778,-63.08897 -8.49871,-5.4372 -30.32658,-16.2979 -48.50638,-24.13489 -54.37096,-23.43834 -68.34587,-31.65915 -88.90357,-52.29799 -40.79745,-40.95854 -50.42175,-85.20107 -36.3988,-167.32401 7.76309,-45.4632 33.10515,-111.39108 71.11743,-185.01342 37.98791,-73.57515 67.42053,-116.90467 79.41031,-116.90467 6.18034,0 13.13291,18.25951 21.39596,56.19209 l 7.34436,33.71526 h 17.76288 c 23.28357,0 108.57338,-6.86951 150.39548,-12.11332 42.52379,-5.3318 85.28995,-13.56197 170.55953,-32.8235 89.09391,-20.12541 113.96461,-24.65491 126.29479,-23.00109 33.18203,4.45064 20.72727,24.0705 -68.90735,108.54907 -75.09117,70.77169 -80.91757,76.86795 -79.15046,82.81662 0.7879,2.65233 10.0125,25.05157 20.49914,49.77609 38.7805,91.43348 60.67744,170.68498 69.77432,252.53389 5.4854,49.35485 10.66158,150.64646 7.83553,153.33233 -4.24678,4.03616 -115.7531,56.10216 -137.16565,64.04722 -27.92244,10.3605 -83.40004,24.424 -116.35069,29.49475 -30.7755,4.736 -79.00122,6.93103 -97.49728,4.43766 z m 144.90702,-299.8833 c 12.81917,-12.09003 12.58927,-20.82817 -0.99692,-37.89169 -13.93236,-17.4983 -28.97069,-27.56631 -43.64587,-29.22039 -11.02309,-1.24247 -12.09571,-0.81803 -14.60383,5.77887 -7.79841,20.51133 3.10775,49.79265 23.32017,62.61101 15.92174,10.09725 24.17669,9.80365 35.92645,-1.2778 z m 37.05216,-49.67873 c 8.56458,-3.90227 19.98929,-26.5847 19.98929,-39.68635 0,-21.55933 -31.88255,-40.04941 -69.62163,-40.37662 -23.27993,-0.20177 -29.52981,3.75048 -26.52683,16.77515 4.28821,18.59897 31.12413,49.2142 53.50625,61.04154 11.38605,6.0167 13.84303,6.26035 22.65292,2.24628 z"
       id="body"
       transform="scale(0.26458333)"
       inkscape:label="body" />
    <path
       style="fill:#7adfff;fill-opacity:1;stroke-width:0.330542"
       d="m 589.03941,676.5864 c -5.256,-1.41264 -13.84058,-5.61168 -18.33325,-8.96747 -13.70408,-10.23625 -23.42275,-27.99041 -24.22005,-44.24543 -0.23144,-4.71834 0.23643,-9.01487 1.54466,-14.18508 2.214,-8.74983 4.50005,-10.67298 13.06383,-10.98997 5.01624,-0.18568 8.36557,0.32306 13.60514,2.06652 4.22686,1.40649 7.16456,2.88358 10.50307,5.281 11.64988,8.36593 29.03126,27.12297 33.49217,36.14294 1.10727,2.23889 1.24782,2.81521 1.34909,5.53154 0.13928,3.73607 -0.42542,6.16137 -2.38121,10.22706 -3.17902,6.60851 -8.44252,12.04989 -16.1707,16.71715 -4.64106,2.80288 -8.35055,3.52428 -12.45275,2.42174 z"
       id="cheek-2"
       transform="scale(0.26458333)"
       inkscape:label="cheek-2" />
    <path
       style="fill:#7adfff;fill-opacity:1;stroke-width:0.330542"
       d="m 633.64851,619.61414 c -5.26583,-1.12625 -10.17833,-3.39354 -16.40676,-7.57229 -11.56572,-7.75961 -29.0528,-24.3648 -37.46652,-35.57706 -6.96056,-9.27574 -10.95601,-19.08849 -10.95601,-26.90772 0,-4.25916 0.73907,-6.28531 3.10961,-8.52492 2.94589,-2.78318 6.55381,-4.49339 11.64261,-5.51877 15.62319,-3.14804 38.82277,1.301 58.80384,11.27695 14.42795,7.20344 22.3868,15.46647 24.49903,25.43537 0.63449,2.99451 0.61821,9.26952 -0.033,12.71402 -1.13838,6.02146 -4.51979,14.64174 -8.1889,20.87609 -4.77734,8.1174 -10.05849,12.63304 -16.32861,13.96177 -2.91207,0.61711 -5.23,0.57344 -8.6753,-0.16344 z"
       id="cheek-1"
       transform="scale(0.26458333)"
       inkscape:label="cheek-1" />
  </g>
</svg>
